<?xml version="1.0" encoding="utf-8"?>
<!-- Generator: Adobe Illustrator 26.0.2, SVG Export Plug-In . SVG Version: 6.00 Build 0)  -->
<svg version="1.1" id="Layer_1" xmlns="http://www.w3.org/2000/svg" xmlns:xlink="http://www.w3.org/1999/xlink" x="0px" y="0px"
	 viewBox="0 0 471.1 83.7" style="enable-background:new 0 0 471.1 83.7;" xml:space="preserve">
<g id="Layer_2_00000083076243666040910220000011685930201153084038_">
	<g id="Layer_2-2">
		<path d="M13.9,44.5c-0.8,1.6-1.4,3.3-1.7,5c-0.1,0.5,0.3,1,0.9,1.1c0.1,0,0.2,0,0.3,0c0.7,0,1.8-0.8,3-2.4s2.1-2.3,2.6-2.3
			c0.3,0.3,0,1.1-1.1,2.2c-0.2,0.3-0.4,0.6-0.6,0.9c-0.3,0.5-0.5,0.9-0.7,1.2s-0.5,0.7-0.8,1.1c-0.3,0.4-0.6,0.8-0.9,1.1
			c-0.3,0.3-0.6,0.6-1,0.9c-0.5,0.5-1.1,0.8-1.8,0.9c-0.7,0-1.4-0.1-2.1-0.3c-0.9-0.2-1.4-0.4-1.4-0.7c0-0.2,0-0.4,0-0.6
			c0-3,2.4-9.1,7.3-18.3c-0.6,0-1.1,0-1.7-0.1c-0.4,0-0.7-0.3-0.8-0.7c-0.1-0.4,0-0.6,0.3-0.7c0.3-0.1,0.7-0.1,1,0
			c0.6,0.1,1.2,0.1,1.8,0.1c2.9-5.3,4.7-8.5,5.2-9.7c0.4-0.8,0.7-1.6,0.9-2.5c0-0.4,0-0.8-0.1-1.2c0.2-1.6,1.6-3.7,4.2-6.3
			s4.9-3.9,6.9-3.9c1,0.1,1.9,0.3,2.8,0.8c1.2,0.5,1.8,1.1,2,1.8s0.2,1,0.1,1.1s-0.3,0.1-0.6,0c-0.2-0.1-0.3-0.1-0.5-0.2
			c-4.1,0-10,6.7-17.6,20.2c6.5-0.4,13-1.6,19.2-3.8c6.6-2.2,11.6-5.1,15.1-8.7c1.8-1.6,2.9-3.8,3-6.2c0-6.4-6.6-9.6-19.7-9.6
			c-7.3,0-14.6,1.1-21.5,3.4c-3.3,1.1-6.4,2.9-9.1,5.1c-2.3,1.8-3.9,4.4-4.4,7.2c-0.1,0.4-0.1,0.7-0.1,1.1c0,0.6,0.2,1.2,0.5,1.7
			c0.3,0.6,0.8,1.1,1.3,1.5c0.7,0.5,1.4,0.9,2.2,1.2c0.7,0.3,1.3,0.6,1.9,1c0.3,0.2,0.4,0.5,0.2,0.7s-0.6,0.3-1.1,0.2
			c-1.9-0.3-3.7-1.3-5-2.7C0.9,24,0.1,22.2,0,20.4c0-0.5,0.1-1,0.2-1.5C0.1,18.1,0,17.6,0,17.5c0.8-4.3,5-8.4,12.6-12.3
			C18.7,2.4,25.8,1,34,1c5,0,10.1,0.7,14.9,2c2.9,0.9,5.6,2.6,7.6,4.9c1.6,1.8,2.5,4.1,2.6,6.5c0,3.4-1.5,6.6-4,8.8
			c-2.6,2.5-5.6,4.5-8.9,5.9c-7.7,3.3-16.9,5.1-27.4,5.3C16.7,38.5,15,41.9,13.9,44.5z M226.4,44.8c-2,2.2-4.2,4.1-6.5,5.8
			c-1.9,1.5-4.3,2.4-6.7,2.4c-2.9,0-4.4-1.8-4.4-5.3s2.5-7.9,7.6-13c0.3-0.3,0.6-0.6,0.9-0.9l0.6-0.9c0.8-1.1,1.2-1.8,1.1-2.1
			l-0.3-0.8c-0.2-0.7-1.2-1.2-2.8-1.5c-1.3-0.3-2.7-0.4-4.1-0.5c-3,4.3-5.3,7.5-6.8,9.6c-0.7,1.7-4.1,5.3-10.2,10.8
			c-2.6,2.5-5.4,4.7-8.4,6.7c-4.9,10-8.1,16.3-9.8,18.9c-4.3,6.4-8.5,9.6-12.7,9.6c-0.6,0-1.2-0.1-1.7-0.3c-2.9-0.7-4.4-2.3-4.4-4.6
			c0-2.3,1.5-5.2,4.5-8.7c3-3.5,9.3-8.5,19-14.9c3.3-6.5,6.2-13.2,8.6-20c-3.2,3.8-5.5,6.5-6.8,8c-5.2,5.7-9.3,8.6-12.5,8.6
			c-1.1,0-2.1-0.3-3-0.8c-1.1-0.6-2-1.3-2.7-2.3c-0.7-0.9-1.1-2.1-1.1-3.2c0-0.3,0-0.7,0.1-1c-2.7,2.9-5.1,4.3-7.2,4.3
			c-1.5,0.1-2.9-0.8-3.5-2.2c-1.1,1.2-2.3,2.3-3.4,3.3c-2.1,1.8-4.7,2.8-7.5,2.8c-1.4,0.1-2.7-0.3-3.9-1.1c-2-1.2-3-3.3-3-6.5
			c0-1,0.1-2.1,0.3-3.1c-0.6,0.8-1.4,1.6-2.3,2.6c-3.7,3.9-6.7,6.4-9.2,7.3c-1.2,0.5-2.4,0.7-3.6,0.8c-2.1,0.1-4-1.2-4.5-3.3
			c-0.1-0.5-0.2-1-0.2-1.5c0-2,0.9-5,2.8-9.1c-1,1.5-2.1,3-3.3,4.3l0,0c-3.1,3.6-5.8,5.5-8.2,5.5c-1.5,0.1-2.9-0.8-3.5-2.2
			c-1.1,1.2-2.3,2.3-3.4,3.3c-2.1,1.8-4.7,2.8-7.5,2.8c-1.4,0.1-2.7-0.3-3.9-1.1c-2-1.2-3-3.4-3-6.5c0-1.1,0.1-2.1,0.3-3.2
			c-0.7,0.8-1.4,1.7-2.3,2.6c-1.7,1.9-3.5,3.6-5.4,5.1c-2.1,1.8-4.8,2.9-7.6,3c-2.1,0.1-3.9-1.3-4.4-3.3c-0.2-0.6-0.3-1.2-0.3-1.8
			c0-0.8,0.1-1.5,0.2-2.3c0.3-2.4,1.8-6.2,4.6-11.3c0.4-0.7,0.7-1.4,0.8-2.2c0-0.4-0.2-0.6-0.7-0.6c-0.9,0-2.7,1.1-5.3,3.4
			c-2.9,2.9-5.5,6.1-7.9,9.4c-3.5,4.6-5.4,7.1-5.9,7.3c-1.2,0.7-2.5,1.2-3.8,1.5c-0.5,0-0.8-0.1-0.8-0.2c-0.1-0.2,0-0.4,0.1-0.6
			c0.1-0.2,0.6-1.5,1.4-3.8c2.7-7.6,4.5-12.7,5.5-15.1c-1.9,2.4-4.2,5.1-7,8.2c-0.5,0.5-0.7,0.4-0.7-0.3c0-0.7,0.3-1.4,0.8-2
			c0.5-0.7,1.6-2,3.2-4s2.8-3.5,3.5-4.4c-0.5-0.2-0.8-0.7-0.8-1.2c-0.1-0.4,0.1-0.9,0.5-1.1c0.6-0.2,1.3-0.1,1.8,0.2
			c0.6-0.8,1.1-1.7,1.5-2.7C63.9,11.5,70.4,3,76.5,0.6C77.4,0.2,78.3,0,79.2,0c2.5,0,4.2,0.7,5,2.1c0.4,0.5,0.6,1.2,0.7,1.8
			c0,3.9-3.3,8.8-9.8,14.7c-5.8,5.1-11.1,9.5-16,13.1c-1.9,4.4-3.6,8.8-5,13.3c2.1-2.5,4.7-5.4,7.8-8.8c6.4-6.6,10.8-9.9,13.3-9.9
			c1-0.1,1.9,0.5,2,1.5c0,0.1,0,0.3,0,0.4c0.1,1.3-0.2,2.6-0.8,3.8l-1.8,3.3c-2.7,4.5-4,8.5-4,12c-0.1,0.9,0.2,1.8,0.7,2.5
			c0.8,0.9,1.9,1,3.4,0.2c2.2-1.4,4.3-3,6.2-4.8c2.4-2.1,4.6-4.5,6.5-7.1h0.1c0.5-1.1,1-2.2,1.7-3.2c1.3-2,2.8-3.8,4.6-5.4
			c2.8-2.5,5.5-3.7,8-3.7c0.6,0,1.2,0.1,1.8,0.2c1.5,0.3,2.6,1.7,2.6,3.3c0,1.3-0.3,2-1,2c-0.3-0.1-0.4-0.5-0.4-1.3
			c0-1-0.6-1.5-1.7-1.5c-2,0-4.6,1.8-7.7,5.5c-2.9,3.1-4.8,6.9-5.7,11.1c-0.1,0.7-0.2,1.4-0.2,2.1c0,0.9,0.3,1.8,0.8,2.7
			c0.6,1,1.7,1.6,2.9,1.5c1.7-0.1,3.3-0.8,4.6-1.9c1.7-1.3,3.3-3,4.5-4.8l-0.3-0.5c-0.3-0.8-0.1-1.6,0.3-2.2
			c0.4-0.6,1.2-0.8,1.8-0.5c0.9-1.5,1.4-3.2,1.6-4.9c0-0.9-0.1-1.8-0.4-2.7c-0.3-0.6-0.1-1.3,0.3-1.7c0.5-0.5,1.2-0.6,1.8-0.5
			c1.2,0.3,1.7,1.6,1.7,3.9s-1.3,5.3-4,9c-0.1,1.2,0.8,2.2,1.9,2.3c0.2,0,0.3,0,0.5,0c1.5,0,3.8-1.6,6.8-4.7l0,0
			c2.8-3.5,5-6.5,6.6-8.9c0,0,0.6-1.3,1.9-3.6c-0.6,0.1-1.2,0.2-1.8,0.2c-0.5,0-1-0.2-1.3-0.6c-0.3-0.4-0.3-0.9-0.1-1.3
			c0.4-0.9,1.9-1.4,4.6-1.5c0.1-0.1,0.2-0.2,0.3-0.2l4.3-8c0.2-0.5,0.5-0.9,0.8-1.4s0.5-0.9,0.6-1.1s0.3-0.5,0.5-0.8
			c0.1-0.2,0.3-0.4,0.4-0.6l0.3-0.4c0.2-0.3,0.9-0.5,2-0.5c0.9-0.1,1.7,0.2,2.3,0.9c0.2,0.4,0.3,0.8,0.3,1.2c0,0.6-0.2,1.3-0.6,1.8
			c-0.3,0.6-0.8,1.1-1.3,1.4c-0.4,0.2-0.7,0.5-0.9,0.9l-4.1,7.2l1.1-0.1c4.4-0.4,7.1-0.6,8-0.6c0.9,0,1.4,0.1,1.4,0.4
			s-0.7,0.7-2,1.1c-3.3,0.7-6.5,1.1-9.8,1.4c-0.3,0.5-0.6,1.1-1,1.8c-0.5,0.8-1,1.6-1.4,2.5c-3.3,6.5-5,10.7-5.2,12.5
			c-0.1,0.7-0.1,1.3-0.1,2c0,0.7,0.2,1.4,0.7,2c0.8,0.9,1.9,1,3.4,0.2c2.2-1.4,4.3-3,6.2-4.8c2.4-2.1,4.6-4.5,6.5-7.1l0.1-0.1
			c1.5-3.3,3.7-6.2,6.4-8.5c2.8-2.5,5.5-3.7,8-3.7c0.6,0,1.2,0.1,1.8,0.2c1.5,0.3,2.6,1.7,2.6,3.3c0,1.3-0.3,2-1,2
			c-0.3-0.1-0.4-0.5-0.4-1.3c0-1-0.6-1.5-1.7-1.5c-2,0-4.6,1.8-7.7,5.5c-2.9,3.1-4.8,6.9-5.7,11.1c-0.1,0.7-0.2,1.4-0.2,2.1
			c0,0.9,0.3,1.8,0.8,2.7c0.6,1,1.7,1.6,2.9,1.5c1.7-0.1,3.3-0.8,4.6-1.9c1.7-1.4,3.3-3,4.5-4.8l-0.3-0.5c-0.3-0.8-0.1-1.6,0.3-2.2
			c0.4-0.6,1.2-0.8,1.8-0.5c0.9-1.5,1.4-3.2,1.6-4.9c0-0.9-0.1-1.8-0.4-2.7c-0.3-0.6-0.1-1.3,0.3-1.7c0.5-0.5,1.2-0.6,1.9-0.5
			c1.1,0.3,1.7,1.6,1.7,3.9s-1.3,5.3-4,9c-0.1,1.2,0.8,2.2,1.9,2.3c0.2,0,0.3,0,0.5,0c1.5,0,3.9-1.7,7-5c0.7-0.8,1.2-1.4,1.6-1.9
			c1.2-1.7,2.7-3.3,4.3-4.7c2.4-2.2,5-4.2,7.8-5.9c2-1.3,4.2-2.3,6.5-3c1.5-0.4,3.1-0.6,4.6-0.6c1.4,0,2.8,0.4,4,1.2
			c1.1,0.8,1.7,1.6,1.7,2.4c0,0.5-0.2,0.6-0.7,0.4c-0.6-1.1-2-1.6-4.2-1.6c-2.6,0.1-5.1,0.8-7.3,2.1c-2.7,1.4-5.1,3-7.4,5
			c-2.2,1.9-4,4.1-5.6,6.5c-1.5,2.4-2.3,4.2-2.3,5.4c0,2,0.6,3,1.7,3c1.6,0,4.1-1.3,7.4-4c5.2-4.1,10-8.8,14.2-14
			c0.8-1.1,2.3-1.1,4.6,0.1c0.9,0.5,1.3,0.9,1.1,1.2c-0.7,1.7-2.1,4.5-4.1,8.6c-2,4.1-3.5,7.2-4.4,9.2c2.4-1.5,4.7-3.3,6.8-5.2
			c2.9-2.6,5.6-5.3,8.1-8.3c2.4-3.1,4.5-6.4,6.3-9.9c-0.6-0.1-1.1-0.3-1.6-0.7c-0.3-0.4-0.4-1-0.1-1.9c0.6-1.4,1.5-2.6,2.6-3.6
			c1.1-1.2,2.4-2.2,3.8-3c1.1-0.5,1.8-0.8,2.1-1c0.3-0.1,0.7-0.2,1-0.2c0.7,0,0.4,1-0.7,3.1l-3.4,5.3c2.6,0.2,4.8,0.3,6.6,0.3l3-0.1
			c0.7,0,1.5,0.1,2.1,0.4c0.4,0.3,0.6,0.7,0.3,1.3c-0.7,1.6-1.8,3.1-3,4.4c-3.3,3.8-5.9,8.1-7.7,12.8c-0.4,0.9-0.6,1.9-0.6,2.8
			c0,1.7,0.6,2.5,1.8,2.5c0.8-0.2,1.6-0.5,2.3-0.9c2-1.3,3.9-2.8,5.6-4.5c2.4-2.1,4.5-4.4,6.4-7c0.2-0.3,0.5-0.4,0.8-0.2
			c0.3,0.1,0.5,0.3,0.5,0.4c0,0.2-0.1,0.3-0.2,0.5C229.8,41,228.2,43,226.4,44.8z M60.8,27.9c4.2-2.8,8.1-6,11.7-9.6
			c3.5-3.3,6.5-7,8.8-11.2c0.6-1.1,1-2.2,1.1-3.5c0-1-0.4-1.4-1.2-1.4c-1.2,0.2-2.4,0.7-3.3,1.5C71.6,8.5,65.9,16.6,60.8,27.9z
			 M179.6,58.5c-5.2,3.8-10.1,7.8-14.8,12.3c-3,3-4.5,5.8-4.5,8.5c-0.1,0.7,0.2,1.3,0.8,1.7c0.5,0.3,1.1,0.5,1.6,0.5
			c0.9-0.2,1.8-0.6,2.5-1.3c1-0.8,1.9-1.6,2.8-2.5c0.8-0.8,1.4-1.6,2-2.3c0.7-0.9,1.3-1.8,1.9-2.8l1.7-2.6c0.4-0.6,1-1.6,1.7-3
			c0.7-1.3,1.2-2.3,1.5-2.8s0.7-1.5,1.5-3S179.5,58.8,179.6,58.5z M349.1,27.2c0,3.8-2.2,8.5-6.5,13.8c-2.9,3.4-6.1,6.4-9.7,9
			c-1.9,1.4-4.1,2.1-6.5,2.2c-2.9,0-4.7-1.1-5.4-3.3c-0.5-1.6-0.7-3.2-0.6-4.9c-0.1-1.9,0.2-3.7,0.9-5.5c-1.4,2.8-3.1,5.4-5.1,7.8
			c-1.3,1.7-2.9,3.1-4.7,4.3c-1.2,0.7-2.5,1.1-3.9,1.2c-2.3,0-3.9-0.6-4.8-1.8c-0.9-1.1-1.4-2.6-1.4-4c0-1.4,0.2-2.8,0.6-4.1
			c-2.4,3-5.1,5.7-8.1,8.1c-2.4,2-5.4,3-8.4,3c-1.7,0.1-3.2-0.8-3.9-2.4c-0.9-1.9-1.3-3.9-1.2-6c0.1-3.4,0.7-6.7,1.5-10
			c-2-0.2-5.4-0.6-10.2-1.2c-8,9.9-14.6,16.7-19.9,20.6c-4,3.2-9,5-14.1,5.1c-2.8,0.1-5.6-0.7-8-2.3c-2.2-1.6-3.5-4.2-3.3-6.9
			c0-0.6,0.1-1.1,0.4-1.6c0.3-0.5,0.6-0.6,0.9-0.4s0.4,0.9,0.4,2c-0.1,1.8,0.8,3.4,2.3,4.4c1.7,1,3.6,1.5,5.6,1.4
			c5-0.1,9.8-1.7,13.9-4.6c4.6-3.1,10.8-9.1,18.6-18c-8.4-1-14-1.5-16.7-1.5c-7.3,0-11.8,2.4-13.5,7.1c-0.2,0.6-0.3,1.2-0.3,1.8
			c0,0.5,0.1,1,0.3,1.5c0.2,0.3,0.3,0.7,0.1,1c-0.1,0.3-0.4,0.4-0.7,0.3c-0.4,0-0.7-0.2-0.9-0.6c-0.6-1-1-2-1-3.2
			c0-3.5,0.6-6.2,1.9-7.9c1.1-1.6,2.7-2.7,4.5-3.2c2.4-0.6,4.8-0.9,7.2-0.9c2.8,0,9.7,1.1,20.8,3.3c3.1-3.5,7.8-9.3,14.1-17.1
			s9.5-11.9,9.5-12h0.1c0.1-0.1,0.3-0.2,0.4-0.3c1.4-0.8,2.9-1.2,4.5-1.2c0.4-0.1,0.8,0.2,0.9,0.6c0,0.1,0,0.1,0,0.2
			c0,0.1,0,0.1-0.1,0.2c-0.1,0.1-0.1,0.2-0.2,0.4c0,0.1-0.1,0.3-0.2,0.4c-5.7,9.6-10,20-12.8,30.8l-0.3,0.6l2.1,0.1
			c0.8,0.1,1.6,0.1,2.5,0.1c1.3,0,2.6-0.3,3.7-0.8c1-0.3,1.9-0.9,2.5-1.8c0.4-0.6,0.7-0.8,1-0.4c0.3,0.3,0.3,0.8,0.1,1.1
			c-0.7,1.2-2,2.1-3.4,2.5c-1.3,0.6-2.7,0.8-4.1,0.9h-2.6l-2.3-0.1c-0.9,3.9-1.5,7.9-1.6,11.9c0,3,0.8,4.4,2.4,4.4s4-1.2,7.2-3.7
			c3.5-2.7,6.6-5.9,9.2-9.5c0.1-0.1,0.2-0.2,0.3-0.2c0.5-1.1,1-2.2,1.7-3.3c0.8-1.3,1.9-2.8,3.3-4.6c0.7-1.1,1.6-2.1,2.7-3
			c0.8-0.2,1.6-0.3,2.5-0.3c0.7,0,1.4,0.1,2,0.3c0.6,0.2,0.9,0.5,0.9,0.9s-0.4,0.9-1.2,1.5c-1.7,1.7-3.2,3.5-4.6,5.4
			c-1.9,2.3-3.4,4.9-4.6,7.7c-0.7,1.8-1.1,3.6-1.2,5.5c0,1.4,0.6,2.2,1.9,2.2s3-0.9,5.2-2.7c3.6-3,7.7-8.5,12.2-16.6
			c0.3-0.4,0.8-0.7,1.2-0.6c0.8,0,1.7,0.2,2.5,0.5c1.1,0.3,1.6,0.7,1.6,1.2c0,0.2-0.1,0.4-0.2,0.5c-2.5,4-4,8.6-4.6,13.2
			c-0.3,1.4,0,2.8,0.9,4c0.8,1,2.3,0.9,4.6-0.3c3.8-2,7.2-4.9,9.8-8.3c3-3.8,4.8-7.2,5.5-10.2c0.2-0.7,0.3-1.4,0.3-2.1
			c0-3.2-0.9-5.2-2.8-5.9c-0.5-0.2-1.1-0.3-1.7-0.2c-0.6,0.1-1,0-1.1-0.1c-0.1-0.1-0.1-0.3-0.1-0.5c0.1-0.5,1.3-0.8,3.5-0.8
			C347.2,21.4,349.1,23.3,349.1,27.2z M282.3,33c2.2-7.9,4.8-15.6,7.8-23.2c0.1-0.2,0.1-0.3,0.2-0.5c0.1-0.2,0.2-0.4,0.2-0.5
			c-7.2,9.8-12.9,17.4-17.3,22.7L282.3,33z M440.1,45.2c-0.9,2.9-1.4,5.9-1.6,8.8c-0.1,1.6,0.3,3.2,1,4.6c0.3,0.7,0.9,1.2,1.6,1.4
			c0.6,0.2,1.2,0.1,1.8-0.3c0.4-0.2,0.8-0.5,1.1-0.8c0.3-0.3,0.6-0.5,1-0.7c0.4-0.2,0.6-0.2,0.8-0.1s0.1,0.4-0.1,0.9
			c-0.4,0.5-0.8,1-1.3,1.5c-0.9,0.7-2.1,1-3.2,1c-0.8,0-1.6,0-2.5-0.1c-2.8-0.5-4.1-2.5-4.1-6c0-3.3,0.4-6.5,1.4-9.6
			c1.3-4,2.4-7.3,3.4-10c-9.2,10.7-15.7,16-19.5,16c-1.1,0-2.1-0.3-3-0.8c-1.1-0.6-2-1.3-2.7-2.3c-0.7-0.9-1.1-2.1-1.1-3.2
			c0-0.2,0-0.5,0-0.7v0c-2,2.2-4.2,4.1-6.5,5.8c-1.9,1.5-4.3,2.4-6.7,2.4c-2.9,0-4.4-1.8-4.4-5.3c0-3.5,2.5-7.9,7.6-13
			c0.3-0.3,0.6-0.6,0.9-0.9l0.6-0.9c0.8-1.1,1.2-1.8,1.1-2.1l-0.2-0.8c-0.2-0.7-1.2-1.2-2.8-1.5c-1.3-0.3-2.7-0.4-4-0.5
			c-3.9,5.5-6.5,9.2-7.9,11.1c-1.1,1.7-2.4,3.3-3.8,4.8c-1.9,2.1-4,4.1-6.2,5.9c-2.7,2-5.2,3-7.5,3c-2.1,0.1-3.9-1.3-4.4-3.3
			c-0.2-0.8-0.3-1.5-0.3-2.3c0-2.8,0.6-5.6,1.6-8.2c-1.1,1.1-2.2,2.2-3.2,3.4c-2,2.3-4.2,4.4-6.6,6.3c-2.5,2-4.7,3-6.8,3
			c-1.1,0-2.1-0.3-3-0.8c-1.1-0.6-2-1.3-2.7-2.3c-0.7-0.9-1.1-2.1-1.1-3.2c0-1.1,0.3-2.2,0.8-3.3c1.4-2.7,3.2-5.1,5.5-7
			c2.5-2.2,5.1-4.1,8-5.8c2-1.3,4.2-2.3,6.5-3c1.5-0.4,3.1-0.6,4.7-0.6c1.4,0,2.8,0.4,3.9,1.2c0.9,0.5,1.5,1.4,1.6,2.5
			c0,0.2,0,0.4-0.1,0.5c-0.1,0.1-0.2,0-0.4-0.1c-0.7-1.1-2.1-1.6-4.3-1.6c-2.6,0.1-5.1,0.8-7.3,2.1c-2.8,1.4-5.4,3.2-7.7,5.2
			c-2,1.9-3.8,4.1-5.3,6.4c-1.5,2.4-2.3,4.1-2.3,5.2c0,2.1,0.6,3.2,1.8,3.2s3-1,5.5-2.9c2.9-2.4,5.7-4.9,8.4-7.6
			c5.3-5.7,8.1-8.5,8.5-8.5c0.9,0,1.7,0.2,2.5,0.6c1,0.4,1.3,0.9,1,1.5c-2.7,3.7-4.5,7.9-5.2,12.5c-0.1,0.7-0.1,1.3-0.1,2
			c0,0.7,0.2,1.4,0.7,2c0.9,0.9,2,1,3.5,0.2c2.2-1.4,4.3-3,6.2-4.8c1.6-1.5,3.2-3,4.6-4.7l0.2-0.3c3.1-3.8,5.8-7.8,8-12.1
			c-0.6-0.1-1.1-0.3-1.5-0.7c-0.3-0.4-0.4-1-0.1-1.9c0.6-1.4,1.5-2.6,2.6-3.6c1.1-1.2,2.4-2.2,3.8-3c1.1-0.5,1.8-0.8,2.1-1
			c0.3-0.1,0.7-0.2,1-0.2c0.7,0,0.5,1-0.7,3.1l-3.4,5.3c2.6,0.2,4.8,0.3,6.6,0.3l3-0.1c0.7,0,1.5,0.1,2.1,0.4
			c0.5,0.3,0.6,0.7,0.3,1.3c-0.7,1.6-1.8,3.1-3,4.4c-3.3,3.8-5.9,8.1-7.7,12.8c-0.4,0.9-0.6,1.9-0.6,2.8c0,1.7,0.6,2.5,1.8,2.5
			c0.8-0.2,1.6-0.5,2.3-0.9c2-1.3,3.9-2.8,5.6-4.5c1.6-1.5,3.2-3,4.6-4.7c1.3-2,2.8-3.7,4.6-5.3c2.5-2.2,5.1-4.1,8-5.8
			c2-1.3,4.2-2.3,6.5-3c1.5-0.4,3.1-0.6,4.7-0.6c1.6,0,3.1,0.6,4.4,1.5C450.9,9.1,458.4,0,465.6,0c2.4,0,4,0.7,4.9,2.1
			c0.4,0.5,0.6,1.2,0.6,1.8c-0.2,1.9-0.8,3.8-1.9,5.5c-1.6,2.7-3.5,5.1-5.7,7.3c-3.5,3.5-7.2,6.7-11.1,9.8c-4.8,3.9-7.5,6-8,6.5
			C442.7,36.8,441.3,40.9,440.1,45.2z M447,27.9c4.2-2.8,8.1-6,11.7-9.6c3.5-3.3,6.5-7,8.9-11.2c0.6-1.1,1-2.2,1.1-3.5
			c0-1-0.4-1.4-1.2-1.4c-1.2,0.2-2.4,0.7-3.3,1.5C457.8,8.5,452.1,16.6,447,27.9z M441.1,31.7l1.2-2.9c-1.2-0.4-2.4-0.6-3.6-0.5
			c-2.4,0.2-4.6,0.9-6.7,2.1c-2.8,1.4-5.4,3.2-7.7,5.3c-2,1.9-3.8,4.1-5.3,6.4c-1.5,2.4-2.3,4.1-2.3,5.2c0,2.1,0.6,3.2,1.8,3.2
			s3-1,5.5-2.9C430.2,42.6,435.8,37.3,441.1,31.7L441.1,31.7z"/>
	</g>
</g>
</svg>
